<svg width="790" height="390" viewBox="0 0 790 390" fill="none" xmlns="http://www.w3.org/2000/svg">
<mask id="mask0_159_827" style="mask-type:alpha" maskUnits="userSpaceOnUse" x="0" y="0" width="790" height="414">
<path d="M0 14C0 6.268 6.26801 0 14 0H776C783.732 0 790 6.26801 790 14V414H0V14Z" fill="#C4C4C4"/>
</mask>
<g mask="url(#mask0_159_827)">
<path d="M0 14C0 6.268 6.26801 0 14 0H776C783.732 0 790 6.26801 790 14V414H0V14Z" fill="white"/>
<rect x="18.0227" y="13" width="12" height="12" rx="6" fill="#E6E9EC"/>
<rect x="34.0227" y="13" width="12" height="12" rx="6" fill="#E6E9EC"/>
<rect x="50.0227" y="13" width="12" height="12" rx="6" fill="#E6E9EC"/>
<rect y="37" width="790" height="1" fill="#E6E9EC"/>
<rect x="231.293" y="8" width="327.414" height="21" rx="6" fill="#F5F5F5"/>
<path d="M371.279 15.7H375.509V16.636H372.359V18.292H375.239V19.228H372.359V21.064H375.509V22H371.279V15.7ZM377.95 19.516L376.321 17.23H377.437L378.598 18.832L379.741 17.23H380.821L379.21 19.48L380.911 22H379.777L378.562 20.146L377.329 22H376.231L377.95 19.516ZM383.566 22.099C383.242 22.099 382.942 22.051 382.666 21.955C382.396 21.853 382.159 21.7 381.955 21.496C381.757 21.292 381.601 21.037 381.487 20.731C381.373 20.425 381.316 20.068 381.316 19.66V19.48C381.316 19.096 381.376 18.757 381.496 18.463C381.616 18.169 381.778 17.923 381.982 17.725C382.192 17.527 382.432 17.38 382.702 17.284C382.978 17.182 383.266 17.131 383.566 17.131C383.878 17.131 384.154 17.173 384.394 17.257C384.64 17.341 384.847 17.458 385.015 17.608C385.189 17.752 385.327 17.923 385.429 18.121C385.531 18.319 385.6 18.532 385.636 18.76H384.628C384.568 18.538 384.46 18.355 384.304 18.211C384.148 18.067 383.902 17.995 383.566 17.995C383.398 17.995 383.239 18.025 383.089 18.085C382.939 18.139 382.807 18.226 382.693 18.346C382.579 18.466 382.489 18.622 382.423 18.814C382.357 19 382.324 19.222 382.324 19.48V19.66C382.324 19.942 382.357 20.185 382.423 20.389C382.489 20.587 382.579 20.749 382.693 20.875C382.807 21.001 382.939 21.094 383.089 21.154C383.239 21.208 383.398 21.235 383.566 21.235C384.124 21.235 384.478 20.98 384.628 20.47H385.636C385.588 20.722 385.504 20.95 385.384 21.154C385.27 21.352 385.123 21.523 384.943 21.667C384.763 21.805 384.556 21.913 384.322 21.991C384.088 22.063 383.836 22.099 383.566 22.099ZM388.694 22.099C388.376 22.099 388.076 22.051 387.794 21.955C387.512 21.853 387.263 21.703 387.047 21.505C386.837 21.301 386.669 21.046 386.543 20.74C386.417 20.434 386.354 20.074 386.354 19.66V19.48C386.354 19.084 386.414 18.739 386.534 18.445C386.654 18.151 386.816 17.908 387.02 17.716C387.23 17.518 387.47 17.371 387.74 17.275C388.01 17.179 388.298 17.131 388.604 17.131C389.33 17.131 389.885 17.326 390.269 17.716C390.659 18.106 390.854 18.664 390.854 19.39V19.894H387.362C387.368 20.14 387.407 20.35 387.479 20.524C387.557 20.692 387.656 20.83 387.776 20.938C387.902 21.04 388.043 21.115 388.199 21.163C388.361 21.211 388.526 21.235 388.694 21.235C389.036 21.235 389.285 21.181 389.441 21.073C389.603 20.965 389.714 20.824 389.774 20.65H390.764C390.668 21.124 390.431 21.484 390.053 21.73C389.681 21.976 389.228 22.099 388.694 22.099ZM388.649 17.995C388.481 17.995 388.319 18.016 388.163 18.058C388.013 18.1 387.878 18.169 387.758 18.265C387.644 18.355 387.551 18.475 387.479 18.625C387.407 18.769 387.368 18.946 387.362 19.156H389.864C389.858 18.934 389.822 18.748 389.756 18.598C389.696 18.448 389.612 18.328 389.504 18.238C389.396 18.148 389.267 18.085 389.117 18.049C388.973 18.013 388.817 17.995 388.649 17.995ZM393.419 22.045C393.161 22.045 392.939 22.018 392.753 21.964C392.567 21.91 392.411 21.823 392.285 21.703C392.165 21.577 392.075 21.415 392.015 21.217C391.961 21.013 391.934 20.767 391.934 20.479V15.7H392.924V20.407C392.924 20.701 392.972 20.905 393.068 21.019C393.164 21.127 393.341 21.181 393.599 21.181C393.665 21.181 393.722 21.181 393.77 21.181C393.818 21.175 393.866 21.169 393.914 21.163V22.018C393.866 22.03 393.788 22.036 393.68 22.036C393.572 22.042 393.485 22.045 393.419 22.045ZM396.057 22.099C395.853 22.099 395.682 22.03 395.544 21.892C395.406 21.754 395.337 21.583 395.337 21.379C395.337 21.169 395.406 20.998 395.544 20.866C395.682 20.728 395.853 20.659 396.057 20.659C396.261 20.659 396.432 20.728 396.57 20.866C396.708 20.998 396.777 21.169 396.777 21.379C396.777 21.583 396.708 21.754 396.57 21.892C396.432 22.03 396.261 22.099 396.057 22.099ZM398.123 15.7H399.113V17.986C399.167 17.878 399.236 17.773 399.32 17.671C399.404 17.563 399.506 17.47 399.626 17.392C399.752 17.314 399.893 17.251 400.049 17.203C400.211 17.155 400.394 17.131 400.598 17.131C401.18 17.131 401.618 17.29 401.912 17.608C402.206 17.92 402.353 18.379 402.353 18.985V22H401.363V19.21C401.363 18.808 401.279 18.505 401.111 18.301C400.943 18.097 400.667 17.995 400.283 17.995C400.073 17.995 399.893 18.031 399.743 18.103C399.599 18.169 399.479 18.259 399.383 18.373C399.293 18.481 399.224 18.61 399.176 18.76C399.134 18.904 399.113 19.054 399.113 19.21V22H398.123V15.7ZM405.462 22.045C404.916 22.045 404.523 21.928 404.283 21.694C404.049 21.46 403.932 21.082 403.932 20.56V18.076H403.257V17.23H403.932V16.15H404.922V17.23H406.137V18.076H404.922V20.425C404.922 20.707 404.973 20.905 405.075 21.019C405.183 21.127 405.387 21.181 405.687 21.181C405.867 21.181 406.047 21.172 406.227 21.154V22C406.113 22.012 405.996 22.021 405.876 22.027C405.756 22.039 405.618 22.045 405.462 22.045ZM407.266 17.23H408.184V18.04C408.238 17.92 408.31 17.806 408.4 17.698C408.49 17.584 408.592 17.485 408.706 17.401C408.826 17.317 408.955 17.251 409.093 17.203C409.231 17.155 409.378 17.131 409.534 17.131C409.93 17.131 410.239 17.215 410.461 17.383C410.683 17.551 410.836 17.77 410.92 18.04C411.058 17.77 411.25 17.551 411.496 17.383C411.748 17.215 412.039 17.131 412.369 17.131C412.867 17.131 413.251 17.278 413.521 17.572C413.791 17.866 413.926 18.322 413.926 18.94V22H412.936V19.165C412.936 18.739 412.855 18.439 412.693 18.265C412.537 18.085 412.324 17.995 412.054 17.995C411.73 17.995 411.487 18.106 411.325 18.328C411.169 18.544 411.091 18.823 411.091 19.165V22H410.101V19.165C410.101 18.739 410.02 18.439 409.858 18.265C409.702 18.085 409.489 17.995 409.219 17.995C408.895 17.995 408.652 18.106 408.49 18.328C408.334 18.544 408.256 18.823 408.256 19.165V22H407.266V17.23ZM416.716 22.045C416.458 22.045 416.236 22.018 416.05 21.964C415.864 21.91 415.708 21.823 415.582 21.703C415.462 21.577 415.372 21.415 415.312 21.217C415.258 21.013 415.231 20.767 415.231 20.479V15.7H416.221V20.407C416.221 20.701 416.269 20.905 416.365 21.019C416.461 21.127 416.638 21.181 416.896 21.181C416.962 21.181 417.019 21.181 417.067 21.181C417.115 21.175 417.163 21.169 417.211 21.163V22.018C417.163 22.03 417.085 22.036 416.977 22.036C416.869 22.042 416.782 22.045 416.716 22.045Z" fill="#979EA2"/>
</g>
</svg>
