<svg width="132" height="132" viewBox="0 0 132 132" fill="none" xmlns="http://www.w3.org/2000/svg">
<rect width="6" height="6" rx="3" fill="#E6ECF0"/>
<rect x="14" width="6" height="6" rx="3" fill="#E6ECF0"/>
<rect x="28" width="6" height="6" rx="3" fill="#E6ECF0"/>
<rect x="42" width="6" height="6" rx="3" fill="#E6ECF0"/>
<rect x="56" width="6" height="6" rx="3" fill="#E6ECF0"/>
<rect x="70" width="6" height="6" rx="3" fill="#E6ECF0"/>
<rect x="84" width="6" height="6" rx="3" fill="#E6ECF0"/>
<rect x="98" width="6" height="6" rx="3" fill="#E6ECF0"/>
<rect x="112" width="6" height="6" rx="3" fill="#E6ECF0"/>
<rect x="126" width="6" height="6" rx="3" fill="#E6ECF0"/>
<rect y="14" width="6" height="6" rx="3" fill="#E6ECF0"/>
<rect x="14" y="14" width="6" height="6" rx="3" fill="#E6ECF0"/>
<rect x="28" y="14" width="6" height="6" rx="3" fill="#E6ECF0"/>
<rect x="42" y="14" width="6" height="6" rx="3" fill="#E6ECF0"/>
<rect x="56" y="14" width="6" height="6" rx="3" fill="#E6ECF0"/>
<rect x="70" y="14" width="6" height="6" rx="3" fill="#E6ECF0"/>
<rect x="84" y="14" width="6" height="6" rx="3" fill="#E6ECF0"/>
<rect x="98" y="14" width="6" height="6" rx="3" fill="#E6ECF0"/>
<rect x="112" y="14" width="6" height="6" rx="3" fill="#E6ECF0"/>
<rect x="126" y="14" width="6" height="6" rx="3" fill="#E6ECF0"/>
<rect y="28" width="6" height="6" rx="3" fill="#E6ECF0"/>
<rect x="14" y="28" width="6" height="6" rx="3" fill="#E6ECF0"/>
<rect x="28" y="28" width="6" height="6" rx="3" fill="#E6ECF0"/>
<rect x="42" y="28" width="6" height="6" rx="3" fill="#E6ECF0"/>
<rect x="56" y="28" width="6" height="6" rx="3" fill="#E6ECF0"/>
<rect x="70" y="28" width="6" height="6" rx="3" fill="#E6ECF0"/>
<rect x="84" y="28" width="6" height="6" rx="3" fill="#E6ECF0"/>
<rect x="98" y="28" width="6" height="6" rx="3" fill="#E6ECF0"/>
<rect x="112" y="28" width="6" height="6" rx="3" fill="#E6ECF0"/>
<rect x="126" y="28" width="6" height="6" rx="3" fill="#E6ECF0"/>
<rect y="42" width="6" height="6" rx="3" fill="#E6ECF0"/>
<rect x="14" y="42" width="6" height="6" rx="3" fill="#E6ECF0"/>
<rect x="28" y="42" width="6" height="6" rx="3" fill="#E6ECF0"/>
<rect x="42" y="42" width="6" height="6" rx="3" fill="#E6ECF0"/>
<rect x="56" y="42" width="6" height="6" rx="3" fill="#E6ECF0"/>
<rect x="70" y="42" width="6" height="6" rx="3" fill="#E6ECF0"/>
<rect x="84" y="42" width="6" height="6" rx="3" fill="#E6ECF0"/>
<rect x="98" y="42" width="6" height="6" rx="3" fill="#E6ECF0"/>
<rect x="112" y="42" width="6" height="6" rx="3" fill="#E6ECF0"/>
<rect x="126" y="42" width="6" height="6" rx="3" fill="#E6ECF0"/>
<rect y="56" width="6" height="6" rx="3" fill="#E6ECF0"/>
<rect x="14" y="56" width="6" height="6" rx="3" fill="#E6ECF0"/>
<rect x="28" y="56" width="6" height="6" rx="3" fill="#E6ECF0"/>
<rect x="42" y="56" width="6" height="6" rx="3" fill="#E6ECF0"/>
<rect x="56" y="56" width="6" height="6" rx="3" fill="#E6ECF0"/>
<rect x="70" y="56" width="6" height="6" rx="3" fill="#E6ECF0"/>
<rect x="84" y="56" width="6" height="6" rx="3" fill="#E6ECF0"/>
<rect x="98" y="56" width="6" height="6" rx="3" fill="#E6ECF0"/>
<rect x="112" y="56" width="6" height="6" rx="3" fill="#E6ECF0"/>
<rect x="126" y="56" width="6" height="6" rx="3" fill="#E6ECF0"/>
<rect y="70" width="6" height="6" rx="3" fill="#E6ECF0"/>
<rect x="14" y="70" width="6" height="6" rx="3" fill="#E6ECF0"/>
<rect x="28" y="70" width="6" height="6" rx="3" fill="#E6ECF0"/>
<rect x="42" y="70" width="6" height="6" rx="3" fill="#E6ECF0"/>
<rect x="56" y="70" width="6" height="6" rx="3" fill="#E6ECF0"/>
<rect x="70" y="70" width="6" height="6" rx="3" fill="#E6ECF0"/>
<rect x="84" y="70" width="6" height="6" rx="3" fill="#E6ECF0"/>
<rect x="98" y="70" width="6" height="6" rx="3" fill="#E6ECF0"/>
<rect x="112" y="70" width="6" height="6" rx="3" fill="#E6ECF0"/>
<rect x="126" y="70" width="6" height="6" rx="3" fill="#E6ECF0"/>
<rect y="84" width="6" height="6" rx="3" fill="#E6ECF0"/>
<rect x="14" y="84" width="6" height="6" rx="3" fill="#E6ECF0"/>
<rect x="28" y="84" width="6" height="6" rx="3" fill="#E6ECF0"/>
<rect x="42" y="84" width="6" height="6" rx="3" fill="#E6ECF0"/>
<rect x="56" y="84" width="6" height="6" rx="3" fill="#E6ECF0"/>
<rect x="70" y="84" width="6" height="6" rx="3" fill="#E6ECF0"/>
<rect x="84" y="84" width="6" height="6" rx="3" fill="#E6ECF0"/>
<rect x="98" y="84" width="6" height="6" rx="3" fill="#E6ECF0"/>
<rect x="112" y="84" width="6" height="6" rx="3" fill="#E6ECF0"/>
<rect x="126" y="84" width="6" height="6" rx="3" fill="#E6ECF0"/>
<rect y="98" width="6" height="6" rx="3" fill="#E6ECF0"/>
<rect x="14" y="98" width="6" height="6" rx="3" fill="#E6ECF0"/>
<rect x="28" y="98" width="6" height="6" rx="3" fill="#E6ECF0"/>
<rect x="42" y="98" width="6" height="6" rx="3" fill="#E6ECF0"/>
<rect x="56" y="98" width="6" height="6" rx="3" fill="#E6ECF0"/>
<rect x="70" y="98" width="6" height="6" rx="3" fill="#E6ECF0"/>
<rect x="84" y="98" width="6" height="6" rx="3" fill="#E6ECF0"/>
<rect x="98" y="98" width="6" height="6" rx="3" fill="#E6ECF0"/>
<rect x="112" y="98" width="6" height="6" rx="3" fill="#E6ECF0"/>
<rect x="126" y="98" width="6" height="6" rx="3" fill="#E6ECF0"/>
<rect y="112" width="6" height="6" rx="3" fill="#E6ECF0"/>
<rect x="14" y="112" width="6" height="6" rx="3" fill="#E6ECF0"/>
<rect x="28" y="112" width="6" height="6" rx="3" fill="#E6ECF0"/>
<rect x="42" y="112" width="6" height="6" rx="3" fill="#E6ECF0"/>
<rect x="56" y="112" width="6" height="6" rx="3" fill="#E6ECF0"/>
<rect x="70" y="112" width="6" height="6" rx="3" fill="#E6ECF0"/>
<rect x="84" y="112" width="6" height="6" rx="3" fill="#E6ECF0"/>
<rect x="98" y="112" width="6" height="6" rx="3" fill="#E6ECF0"/>
<rect x="112" y="112" width="6" height="6" rx="3" fill="#E6ECF0"/>
<rect x="126" y="112" width="6" height="6" rx="3" fill="#E6ECF0"/>
<rect y="126" width="6" height="6" rx="3" fill="#E6ECF0"/>
<rect x="14" y="126" width="6" height="6" rx="3" fill="#E6ECF0"/>
<rect x="28" y="126" width="6" height="6" rx="3" fill="#E6ECF0"/>
<rect x="42" y="126" width="6" height="6" rx="3" fill="#E6ECF0"/>
<rect x="56" y="126" width="6" height="6" rx="3" fill="#E6ECF0"/>
<rect x="70" y="126" width="6" height="6" rx="3" fill="#E6ECF0"/>
<rect x="84" y="126" width="6" height="6" rx="3" fill="#E6ECF0"/>
<rect x="98" y="126" width="6" height="6" rx="3" fill="#E6ECF0"/>
<rect x="112" y="126" width="6" height="6" rx="3" fill="#E6ECF0"/>
<rect x="126" y="126" width="6" height="6" rx="3" fill="#E6ECF0"/>
</svg>
