<svg width="40" height="40" viewBox="0 0 40 40" fill="none" xmlns="http://www.w3.org/2000/svg">
<path fill-rule="evenodd" clip-rule="evenodd" d="M36 10.1538C36 6.75528 33.2447 4 29.8462 4H10.1538C6.75528 4 4 6.75528 4 10.1538V29.8462C4 33.2447 6.75528 36 10.1538 36H29.8462C33.2447 36 36 33.2447 36 29.8462V10.1538ZM24.2355 22.496L17.504 15.7645C15.1672 13.4261 11.3764 13.4261 9.03795 15.7645C9.03795 15.7645 9.03631 15.7662 9.03467 15.7662C6.69785 18.1046 6.69785 21.8954 9.03467 24.2338C9.03631 24.2338 9.03795 24.2355 9.03795 24.2355C11.3764 26.5739 15.1672 26.5739 17.504 24.2355C17.8667 23.8745 18.2277 23.5134 18.5723 23.1672C19.0531 22.688 19.0531 21.9069 18.5723 21.4277C18.0931 20.9469 17.312 20.9469 16.8328 21.4277C16.4866 21.7723 16.1255 22.1333 15.7645 22.496C14.3877 23.8728 12.1559 23.8728 10.7791 22.496C10.7774 22.4944 10.7774 22.4927 10.7758 22.4927C9.39897 21.1159 9.39897 18.8841 10.7758 17.5073C10.7774 17.5073 10.7774 17.5056 10.7791 17.504C12.1559 16.1272 14.3877 16.1272 15.7645 17.504L22.496 24.2355C24.8328 26.5739 28.6236 26.5739 30.9621 24.2355C30.9621 24.2355 30.9637 24.2338 30.9653 24.2338C33.3022 21.8954 33.3022 18.1046 30.9653 15.7662C30.9637 15.7662 30.9621 15.7645 30.9621 15.7645C28.6236 13.4261 24.8328 13.4261 22.496 15.7645C22.1333 16.1255 21.7723 16.4866 21.4277 16.8328C20.9469 17.312 20.9469 18.0931 21.4277 18.5723C21.9069 19.0531 22.688 19.0531 23.1672 18.5723C23.5134 18.2277 23.8745 17.8667 24.2355 17.504C25.6123 16.1272 27.8441 16.1272 29.2209 17.504C29.2226 17.5056 29.2226 17.5073 29.2242 17.5073C30.601 18.8841 30.601 21.1159 29.2242 22.4927C29.2226 22.4927 29.2226 22.4944 29.2209 22.496C27.8441 23.8728 25.6123 23.8728 24.2355 22.496Z" fill="#37797B"/>
</svg>
