<svg width="40" height="40" viewBox="0 0 40 40" fill="none" xmlns="http://www.w3.org/2000/svg">
<path fill-rule="evenodd" clip-rule="evenodd" d="M13.072 4H26.944C32.368 4 36 7.8064 36 13.4704V26.5424C36 32.192 32.368 36 26.944 36H13.072C7.648 36 4 32.192 4 26.5424V13.4704C4 7.8064 7.648 4 13.072 4ZM25.728 26.096C26.128 26.096 26.528 25.888 26.752 25.504C27.104 24.9424 26.912 24.2064 26.336 23.856L20.64 20.464V13.0704C20.64 12.416 20.112 11.8704 19.44 11.8704C18.784 11.8704 18.24 12.416 18.24 13.0704V21.152C18.24 21.568 18.464 21.968 18.832 22.176L25.104 25.92C25.296 26.048 25.52 26.096 25.728 26.096Z" fill="#37797B"/>
</svg>
