<svg width="40" height="40" viewBox="0 0 40 40" fill="none" xmlns="http://www.w3.org/2000/svg">
<path fill-rule="evenodd" clip-rule="evenodd" d="M8.52875 4H31.4713C33.9681 4 36 6.77715 36 10.1907V29.8093C36 33.2229 33.9681 36 31.4713 36H8.52875C6.03187 36 4 33.2229 4 29.8093V10.1907C4 6.77715 6.03187 4 8.52875 4ZM18.7296 25.4888L22.6384 14.0212C22.7744 13.6224 22.5723 13.1849 22.1875 13.0439C21.8021 12.903 21.3803 13.1124 21.2443 13.5111L17.3355 24.9787C17.1995 25.3775 17.4015 25.8151 17.7864 25.956C18.1713 26.0969 18.5936 25.8881 18.7296 25.4888ZM12.7846 19.7154L16.5411 15.8231C16.8294 15.5239 16.8294 15.0389 16.5411 14.7402C16.2524 14.4409 15.7842 14.4409 15.4954 14.7402L11.2166 19.1737C10.9278 19.4729 10.9278 19.9575 11.2166 20.2567L15.08 24.2598C15.3688 24.559 15.8369 24.559 16.1252 24.2598C16.414 23.9611 16.414 23.476 16.1252 23.1768L12.7846 19.7154ZM28.7834 19.8262L24.5046 24.2598C24.2158 24.559 23.7476 24.559 23.4589 24.2598C23.1706 23.9611 23.1706 23.476 23.4589 23.1768L27.2154 19.2845L23.8748 15.8231C23.586 15.5239 23.586 15.0389 23.8748 14.7402C24.1631 14.4409 24.6312 14.4409 24.92 14.7402L28.7834 18.7433C29.0722 19.0425 29.0722 19.527 28.7834 19.8262Z" fill="#37797B"/>
</svg>
