<svg width="20" height="30" viewBox="0 0 20 30" fill="none" xmlns="http://www.w3.org/2000/svg">
<path d="M6.80646 30C6.68974 30 6.57162 29.9767 6.45877 29.928C6.06379 29.7577 5.85016 29.3265 5.95387 28.909L8.92597 16.9455H0.91799C0.628128 16.9455 0.356898 16.8026 0.193012 16.5635C0.029126 16.3244 -0.00632285 16.0199 0.0982666 15.7495L5.97297 0.561853C6.10393 0.223241 6.42959 0 6.79263 0H14.8763C15.1733 0 15.4502 0.149999 15.6125 0.398788C15.7747 0.647576 15.8003 0.961461 15.6806 1.23328L12.2019 9.12934H19.082C19.4034 9.12934 19.6992 9.30483 19.8533 9.58696C20.0074 9.86902 19.9952 10.2127 19.8215 10.4832L7.54638 29.5959C7.38039 29.8545 7.09808 30 6.80646 30Z" fill="#ED7138"/>
</svg>
