<svg width="40" height="40" viewBox="0 0 40 40" fill="none" xmlns="http://www.w3.org/2000/svg">
<path d="M29.4375 4H10.5625C6.94394 4 4 6.94394 4 10.5625V29.4375C4 33.0561 6.94394 36 10.5625 36H29.4375C33.0561 36 36 33.0561 36 29.4375V10.5625C36 6.94394 33.0561 4 29.4375 4ZM20 28.125C18.8356 28.125 17.7151 27.9703 16.6667 27.6852L12.875 29.625L13.436 26.2559C10.9631 24.6538 9.375 22.1672 9.375 19.375C9.375 14.5425 14.132 10.625 20 10.625C25.868 10.625 30.625 14.5425 30.625 19.375C30.625 24.2075 25.868 28.125 20 28.125Z" fill="#37797B"/>
</svg>
