<svg width="40" height="40" viewBox="0 0 40 40" fill="none" xmlns="http://www.w3.org/2000/svg">
<path fill-rule="evenodd" clip-rule="evenodd" d="M10.5625 4H29.4375C33.0561 4 36 6.94394 36 10.5625V29.4375C36 33.0561 33.0561 36 29.4375 36H10.5625C6.94394 36 4 33.0561 4 29.4375V10.5625C4 6.94394 6.94394 4 10.5625 4ZM27.6172 18.25C27.6172 18.5718 27.588 18.8914 27.5302 19.2048C29.0214 19.8912 30 21.3245 30 22.9167C30 25.168 28.1207 27 25.8594 27H14.1406C12.1888 27 10.4968 25.6191 10.118 23.7159L10.1174 23.7153C10.1087 23.6712 10.0996 23.6268 10.0904 23.5823C10.0458 23.3655 10 23.1434 10 22.9167C10 21.3416 10.9655 19.914 12.3834 19.2435C12.4355 17.9635 13.0792 16.7928 14.1578 16.0534C15.2364 15.3134 16.5456 15.1368 17.8216 15.5487C18.7669 13.9844 20.4875 13 22.3438 13C25.2517 13 27.6172 15.355 27.6172 18.25Z" fill="#37797B"/>
</svg>
