<svg width="40" height="40" viewBox="0 0 40 40" fill="none" xmlns="http://www.w3.org/2000/svg">
<mask id="mask0_159_693" style="mask-type:alpha" maskUnits="userSpaceOnUse" x="0" y="0" width="40" height="40">
<rect width="40" height="40" fill="#C4C4C4"/>
</mask>
<g mask="url(#mask0_159_693)">
<path fill-rule="evenodd" clip-rule="evenodd" d="M12 4C7.58172 4 4 7.58172 4 12V28C4 32.4183 7.58172 36 12 36H28C32.4183 36 36 32.4183 36 28V12C36 7.58172 32.4183 4 28 4H12ZM16.5737 21.1685L15.4725 25.2454H17.9953L20.8302 14.7539H18.3067L17.1405 19.0705H13.0306L14.1969 14.7539H11.6736L8.83936 25.2454H11.362L12.4637 21.1685H16.5737ZM24.1467 25.2454C27.3358 25.2454 30.0979 23.102 30.9362 19.9996C31.7779 16.8825 30.1987 14.7539 27.0805 14.7539H22.814L22.2388 16.8825H26.4489C28.0505 16.8825 28.8685 18.1562 28.3664 20.0149C27.8685 21.8579 26.4227 23.1166 24.8778 23.1166H23.0778L24.3752 18.3139H21.8525L19.9799 25.2454H24.1467Z" fill="#37797B"/>
</g>
</svg>
