<svg width="40" height="40" viewBox="0 0 40 40" fill="none" xmlns="http://www.w3.org/2000/svg">
<path d="M38.75 33.75H21.25C20.56 33.75 20 33.19 20 32.5C20 31.81 20 8.19 20 7.5C20 6.81 20.56 6.25 21.25 6.25H38.75C39.44 6.25 40 6.81 40 7.5V32.5C40 33.19 39.44 33.75 38.75 33.75Z" fill="#EAECED"/>
<path d="M26.25 13.75H21.25C20.56 13.75 20 13.19 20 12.5C20 11.81 20.56 11.25 21.25 11.25H26.25C26.94 11.25 27.5 11.81 27.5 12.5C27.5 13.19 26.94 13.75 26.25 13.75Z" fill="#519FA2"/>
<path d="M26.25 18.75H21.25C20.56 18.75 20 18.19 20 17.5C20 16.81 20.56 16.25 21.25 16.25H26.25C26.94 16.25 27.5 16.81 27.5 17.5C27.5 18.19 26.94 18.75 26.25 18.75Z" fill="#519FA2"/>
<path d="M26.25 23.75H21.25C20.56 23.75 20 23.19 20 22.5C20 21.81 20.56 21.25 21.25 21.25H26.25C26.94 21.25 27.5 21.81 27.5 22.5C27.5 23.19 26.94 23.75 26.25 23.75Z" fill="#519FA2"/>
<path d="M26.25 28.75H21.25C20.56 28.75 20 28.19 20 27.5C20 26.81 20.56 26.25 21.25 26.25H26.25C26.94 26.25 27.5 26.81 27.5 27.5C27.5 28.19 26.94 28.75 26.25 28.75Z" fill="#519FA2"/>
<path d="M33.75 13.75H31.25C30.56 13.75 30 13.19 30 12.5C30 11.81 30.56 11.25 31.25 11.25H33.75C34.44 11.25 35 11.81 35 12.5C35 13.19 34.44 13.75 33.75 13.75Z" fill="#519FA2"/>
<path d="M33.75 18.75H31.25C30.56 18.75 30 18.19 30 17.5C30 16.81 30.56 16.25 31.25 16.25H33.75C34.44 16.25 35 16.81 35 17.5C35 18.19 34.44 18.75 33.75 18.75Z" fill="#519FA2"/>
<path d="M33.75 23.75H31.25C30.56 23.75 30 23.19 30 22.5C30 21.81 30.56 21.25 31.25 21.25H33.75C34.44 21.25 35 21.81 35 22.5C35 23.19 34.44 23.75 33.75 23.75Z" fill="#519FA2"/>
<path d="M33.75 28.75H31.25C30.56 28.75 30 28.19 30 27.5C30 26.81 30.56 26.25 31.25 26.25H33.75C34.44 26.25 35 26.81 35 27.5C35 28.19 34.44 28.75 33.75 28.75Z" fill="#519FA2"/>
<path d="M22.0475 1.53918C21.7625 1.30168 21.38 1.19918 21.02 1.27418L1.02 5.02418C0.4275 5.13418 0 5.64918 0 6.25168V33.7517C0 34.3517 0.4275 34.8692 1.02 34.9792L21.02 38.7292C21.095 38.7442 21.1725 38.7517 21.25 38.7517C21.54 38.7517 21.8225 38.6517 22.0475 38.4642C22.335 38.2267 22.5 37.8717 22.5 37.5017V2.50168C22.5 2.12918 22.335 1.77668 22.0475 1.53918Z" fill="#519FA2"/>
<path d="M17.1901 24.1782L13.2376 19.6607L17.2351 14.5207C17.6601 13.9757 17.5601 13.1907 17.0176 12.7657C16.4751 12.3407 15.6901 12.4407 15.2626 12.9832L11.5601 17.7432L8.44007 14.1782C7.98257 13.6532 7.19257 13.6057 6.67757 14.0607C6.15756 14.5157 6.10506 15.3057 6.56007 15.8232L9.99757 19.7532L6.51257 24.2332C6.08756 24.7782 6.18756 25.5632 6.73006 25.9882C6.96007 26.1657 7.23257 26.2507 7.50007 26.2507C7.87257 26.2507 8.24007 26.0857 8.48757 25.7682L11.6751 21.6682L15.3101 25.8207C15.5576 26.1057 15.9026 26.2507 16.2501 26.2507C16.5426 26.2507 16.8351 26.1482 17.0726 25.9407C17.5926 25.4857 17.6451 24.6957 17.1901 24.1782Z" fill="#FAFAFA"/>
</svg>
